<svg width="526" height="123" viewBox="0 0 526 123" fill="none" xmlns="http://www.w3.org/2000/svg">
<g filter="url(#filter0_b)">
<path d="M106.269 79.96L105.789 79.72C103.549 79.1333 101.176 78.76 98.6691 78.6C96.1624 78.44 93.6024 78.0933 90.9891 77.56C93.5491 78.0933 96.0557 78.52 98.5091 78.84C100.962 79.1067 103.389 79.64 105.789 80.44C105.042 80.92 104.242 81.16 103.389 81.16C102.376 81.0533 101.362 80.8933 100.349 80.68C99.3891 80.4667 98.3491 80.3067 97.2291 80.2C97.2291 79.88 97.3091 79.64 97.4691 79.48C95.9224 79.48 94.3757 79.32 92.8291 79C91.3357 78.68 89.8691 78.3333 88.4291 77.96C86.9891 77.5333 85.5757 77.16 84.1891 76.84C82.8557 76.4667 81.6024 76.28 80.4291 76.28C80.4291 76.44 80.4024 76.52 80.3491 76.52C81.7357 76.7867 83.0424 77.16 84.2691 77.64C85.4957 78.12 86.8824 78.4933 88.4291 78.76C89.9224 79.1333 91.3624 79.4 92.7491 79.56C94.1891 79.72 95.6024 79.9333 96.9891 80.2C94.7491 79.9867 92.4557 79.6667 90.1091 79.24C87.8157 78.8133 85.5491 78.3333 83.3091 77.8L79.5491 76.84C78.2157 80.2533 76.8557 83.6133 75.4691 86.92C74.1357 90.1733 72.8291 93.48 71.5491 96.84C71.4424 96.6267 71.2557 96.4933 70.9891 96.44C70.7757 96.44 70.5357 96.44 70.2691 96.44C70.0557 96.44 69.8424 96.36 69.6291 96.2C69.4157 96.0933 69.3091 95.8267 69.3091 95.4C69.3091 94.9733 69.4157 94.36 69.6291 93.56C69.8424 92.8133 70.2424 91.8 70.8291 90.52C70.7224 90.4133 70.5357 90.36 70.2691 90.36C70.0557 90.3067 69.8957 90.28 69.7891 90.28C68.7224 92.52 67.6824 94.2267 66.6691 95.4C65.7091 96.6267 64.9357 97.24 64.3491 97.24C63.7091 97.24 63.3891 96.6267 63.3891 95.4C63.3891 94.3867 63.5757 93.1067 63.9491 91.56C64.3224 89.96 64.7757 88.2533 65.3091 86.44C65.8957 84.6267 66.5357 82.76 67.2291 80.84C67.9224 78.8667 68.5891 76.9467 69.2291 75.08C68.6424 74.7067 68.0024 74.44 67.3091 74.28C66.6691 74.12 65.9491 73.9867 65.1491 73.88C65.3091 73.6667 65.3891 73.4 65.3891 73.08C65.3891 72.76 65.4157 72.44 65.4691 72.12C65.5224 71.8 65.6291 71.5333 65.7891 71.32C65.9491 71.1067 66.2424 71 66.6691 71C66.7757 71 67.0957 71.0533 67.6291 71.16V70.44C66.7757 70.0133 66.1091 69.5067 65.6291 68.92C65.2024 68.3333 64.9891 67.7467 64.9891 67.16C64.9891 65.88 66.2157 65.24 68.6691 65.24C69.3624 65.24 70.0557 65.2933 70.7491 65.4C71.4957 65.4533 72.2424 65.5333 72.9891 65.64L76.6691 57.24C77.4691 55.4267 78.3224 53.56 79.2291 51.64C80.1891 49.72 81.3091 47.8267 82.5891 45.96C83.8691 44.0933 85.3091 42.3333 86.9091 40.68C88.5624 38.9733 90.4557 37.4533 92.5891 36.12L93.7891 35.64C95.2824 36.0133 96.4824 36.3333 97.3891 36.6C98.3491 36.8133 99.1224 36.9733 99.7091 37.08C100.242 37.2933 100.669 37.4267 100.989 37.48H100.909L100.989 37.72C100.989 37.7733 100.962 37.8267 100.909 37.88L101.869 39.56C105.336 45.3733 108.269 51.4 110.669 57.64C113.069 63.88 115.122 70.0133 116.829 76.04C117.256 77.3733 117.762 78.8133 118.349 80.36C118.989 81.8533 119.576 83.2933 120.109 84.68C120.696 86.0133 121.176 87.24 121.549 88.36C121.922 89.4267 122.109 90.2 122.109 90.68C122.109 91.0533 122.029 91.2933 121.869 91.4C121.709 91.4533 121.496 91.48 121.229 91.48C119.842 88.0133 118.536 84.6 117.309 81.24C116.082 77.9333 114.882 74.6 113.709 71.24C114.776 74.6 115.896 77.9333 117.069 81.24C118.296 84.6 119.522 88.0133 120.749 91.48H120.189C119.869 91.48 119.656 91.64 119.549 91.96C119.656 92.0667 119.789 92.36 119.949 92.84C120.109 93.2667 120.269 93.72 120.429 94.2C120.589 94.7333 120.722 95.2667 120.829 95.8C120.936 96.3333 120.989 96.7333 120.989 97C120.989 98.1733 120.642 98.76 119.949 98.76C119.576 98.76 119.282 98.68 119.069 98.52C118.856 98.36 118.616 98.1467 118.349 97.88L117.549 97.08C117.229 96.76 116.829 96.44 116.349 96.12L108.669 74.04C109.789 77.5067 110.882 80.9733 111.949 84.44C113.069 87.9067 114.216 91.32 115.389 94.68C114.536 93.6667 113.736 92.44 112.989 91C112.296 89.56 111.629 88.04 110.989 86.44C110.402 84.84 109.842 83.2133 109.309 81.56C108.776 79.8533 108.242 78.2533 107.709 76.76C107.709 76.8667 107.709 76.9733 107.709 77.08C107.762 77.1333 107.789 77.2133 107.789 77.32C107.789 78.1733 107.522 78.8133 106.989 79.24L106.269 79.96ZM105.789 71.64C105.896 71.64 106.056 71.6133 106.269 71.56C106.482 71.4533 106.642 71.4 106.749 71.4C104.989 66.9733 103.229 62.68 101.469 58.52C99.7624 54.36 97.8691 50.36 95.7891 46.52L95.3091 47L96.5091 49.16C98.3757 52.5733 100.056 56.0933 101.549 59.72C103.042 63.3467 104.456 67.08 105.789 70.92C104.242 66.76 102.562 62.6267 100.749 58.52C98.9891 54.36 97.0957 50.6 95.0691 47.24L94.7491 47.4C92.9357 49.2667 91.2291 51.5067 89.6291 54.12C88.0824 56.7333 86.6157 59.4 85.2291 62.12L83.1491 67.16L84.5091 67.48C85.3091 67.6933 86.0824 67.9333 86.8291 68.2C87.6291 68.4133 88.3224 68.6533 88.9091 68.92C90.0824 69.5067 91.6291 69.96 93.5491 70.28C95.4691 70.6 97.3357 70.92 99.1491 71.24C101.016 71.5067 102.616 71.8267 103.949 72.2C105.336 72.52 106.029 73 106.029 73.64L96.2691 72.52C96.8557 72.6267 97.5757 72.76 98.4291 72.92C99.2824 73.0267 100.136 73.16 100.989 73.32C101.896 73.48 102.776 73.64 103.629 73.8C104.482 73.9067 105.202 74.0133 105.789 74.12C105.789 74.28 105.762 74.44 105.709 74.6C105.709 74.7067 105.709 74.8133 105.709 74.92C105.709 75.0267 105.762 75.1067 105.869 75.16C106.029 75.16 106.189 75.1867 106.349 75.24C106.562 75.24 106.749 75.2933 106.909 75.4C107.069 75.4533 107.229 75.6133 107.389 75.88L105.789 71.64ZM88.4291 54.52C88.5357 54.52 88.5624 54.6 88.5091 54.76C88.5091 54.8667 88.5357 54.92 88.5891 54.92C88.6957 54.92 89.0157 54.5467 89.5491 53.8C90.0824 53.0533 90.6957 52.2 91.3891 51.24C92.0824 50.28 92.7491 49.3733 93.3891 48.52C94.0291 47.6667 94.4824 47.1067 94.7491 46.84L94.3491 46.28C93.2291 47.3467 92.1891 48.6 91.2291 50.04C90.2691 51.48 89.3357 52.9733 88.4291 54.52ZM96.5091 45.88C98.2157 48.76 99.7891 51.7733 101.229 54.92C102.616 58.0133 103.922 61.1067 105.149 64.2C104.136 61.1067 102.909 58.0133 101.469 54.92C99.9757 51.7733 98.3491 48.76 96.5891 45.88H96.5091ZM108.749 57.88C110.402 62.1467 112.029 66.4933 113.629 70.92C112.136 66.6 110.562 62.3333 108.909 58.12C107.362 53.96 105.576 49.7733 103.549 45.56C105.469 49.6133 107.202 53.72 108.749 57.88ZM96.9891 44.12C97.6824 44.28 98.1624 44.44 98.4291 44.6C98.6957 44.76 98.8824 44.84 98.9891 44.84L99.0691 44.6C99.1224 44.6 99.0157 44.5733 98.7491 44.52C98.4824 44.4667 98.2691 44.4133 98.1091 44.36L98.2691 44.04L97.3091 43.72L96.9891 44.12ZM93.0691 43.32L93.7091 45L93.6291 43.32C93.5224 43.32 93.3891 43.2933 93.2291 43.24C93.1224 43.1867 93.0157 43.16 92.9091 43.16L93.0691 43.32ZM95.1491 45.64L94.5891 46.04L95.0691 46.68L95.5491 46.2L95.1491 45.64ZM96.2691 45.48H96.3491L95.9491 44.92V45L96.2691 45.48ZM123.761 87.64C123.761 87.32 123.948 87.0267 124.321 86.76C124.694 86.4933 125.121 86.2533 125.601 86.04C126.134 85.8267 126.641 85.64 127.121 85.48C127.654 85.32 128.054 85.1867 128.321 85.08C130.881 85.4 133.441 85.6667 136.001 85.88C138.561 86.0933 141.121 86.2 143.681 86.2C144.641 86.2 145.974 86.2 147.681 86.2C149.388 86.1467 151.254 86.04 153.281 85.88C155.308 85.72 157.361 85.48 159.441 85.16C161.521 84.7867 163.414 84.28 165.121 83.64C166.828 83 168.214 82.2 169.281 81.24C170.348 80.28 170.881 79.08 170.881 77.64C170.881 76.4667 170.614 75.4267 170.081 74.52C169.601 73.56 168.934 72.7333 168.081 72.04C167.281 71.2933 166.374 70.68 165.361 70.2C164.988 69.9867 164.588 69.8 164.161 69.64C164.588 69.8533 164.988 70.0667 165.361 70.28C166.321 70.8133 167.174 71.48 167.921 72.28C168.721 73.0267 169.361 73.88 169.841 74.84C170.321 75.7467 170.561 76.7867 170.561 77.96C170.561 79.24 170.081 80.3333 169.121 81.24C168.214 82.0933 167.014 82.8133 165.521 83.4C164.081 83.9867 162.454 84.44 160.641 84.76C158.881 85.08 157.121 85.32 155.361 85.48C153.601 85.64 151.974 85.7467 150.481 85.8C148.988 85.8 147.814 85.8 146.961 85.8C144.241 85.8 141.494 85.72 138.721 85.56C136.001 85.3467 133.281 85.1067 130.561 84.84C131.521 84.5733 132.481 84.3867 133.441 84.28C134.454 84.12 135.468 84.04 136.481 84.04C138.188 84.04 139.868 84.0667 141.521 84.12C143.174 84.12 144.828 84.12 146.481 84.12C148.454 84.12 150.401 84.0933 152.321 84.04C154.241 83.9333 156.214 83.72 158.241 83.4L158.481 84.36C159.281 84.2 160.294 83.96 161.521 83.64C162.748 83.2667 163.921 82.8133 165.041 82.28C166.214 81.7467 167.201 81.08 168.001 80.28C168.854 79.48 169.281 78.5467 169.281 77.48C169.281 75.9333 168.721 74.5733 167.601 73.4C166.481 72.2267 165.041 71.1867 163.281 70.28C161.574 69.32 159.628 68.4933 157.441 67.8C155.254 67.1067 153.094 66.4933 150.961 65.96C148.881 65.4267 146.908 64.9467 145.041 64.52C143.174 64.0933 141.681 63.6933 140.561 63.32V63.8C141.681 64.2267 143.148 64.68 144.961 65.16C146.774 65.5867 148.721 66.0667 150.801 66.6C152.934 67.1333 155.068 67.7467 157.201 68.44C159.334 69.08 161.254 69.8533 162.961 70.76C164.721 71.6667 166.134 72.7067 167.201 73.88C168.321 75.0533 168.881 76.3867 168.881 77.88C168.881 78.7333 168.481 79.48 167.681 80.12C166.881 80.76 165.921 81.32 164.801 81.8C163.734 82.2267 162.641 82.5733 161.521 82.84C160.401 83.1067 159.548 83.2933 158.961 83.4C159.654 83.24 160.534 83.0267 161.601 82.76C162.721 82.44 163.788 82.04 164.801 81.56C165.868 81.08 166.774 80.52 167.521 79.88C168.268 79.1867 168.641 78.3867 168.641 77.48C168.641 75.9867 168.054 74.7333 166.881 73.72C165.708 72.7067 164.161 71.8 162.241 71C160.321 70.2 158.134 69.48 155.681 68.84C153.228 68.2 150.694 67.5067 148.081 66.76C145.521 66.0133 143.014 65.16 140.561 64.2C138.108 63.24 135.921 62.04 134.001 60.6C132.081 59.16 130.534 57.4533 129.361 55.48C128.188 53.5067 127.601 51.1333 127.601 48.36C127.601 45.64 128.241 43.3467 129.521 41.48C130.854 39.56 132.534 38.0133 134.561 36.84C136.641 35.6133 138.908 34.7333 141.361 34.2C143.814 33.6667 146.188 33.4 148.481 33.4C151.841 33.4 155.121 33.88 158.321 34.84C161.574 35.8 164.641 37.1333 167.521 38.84C167.201 38.9467 167.014 39.1067 166.961 39.32C166.908 39.48 166.854 39.6667 166.801 39.88C166.801 40.0933 166.748 40.28 166.641 40.44C166.588 40.6 166.428 40.68 166.161 40.68C165.948 40.68 165.521 40.6 164.881 40.44C164.294 40.2267 163.654 40.0133 162.961 39.8C162.268 39.5333 161.601 39.2933 160.961 39.08C160.321 38.8667 159.894 38.7067 159.681 38.6L159.441 39.32C159.921 39.5333 160.534 39.8533 161.281 40.28C162.081 40.6533 162.828 41.1333 163.521 41.72C164.268 42.2533 164.881 42.84 165.361 43.48C165.894 44.12 166.161 44.76 166.161 45.4C166.161 46.0933 165.841 46.44 165.201 46.44C164.401 46.44 163.441 46.2267 162.321 45.8C161.254 45.3733 160.054 44.92 158.721 44.44C157.388 43.9067 155.948 43.4267 154.401 43C152.908 42.5733 151.388 42.36 149.841 42.36C148.828 42.36 147.628 42.4667 146.241 42.68C144.908 42.84 143.601 43.1867 142.321 43.72C141.094 44.2 140.054 44.8933 139.201 45.8C138.348 46.6533 137.921 47.7467 137.921 49.08C137.921 50.3067 138.481 51.3467 139.601 52.2C140.774 53.0533 142.294 53.8267 144.161 54.52C146.081 55.2133 148.241 55.88 150.641 56.52C153.041 57.16 155.494 57.88 158.001 58.68C160.561 59.4267 163.041 60.3067 165.441 61.32C167.841 62.3333 169.974 63.56 171.841 65C173.761 66.44 175.281 68.1467 176.401 70.12C177.574 72.0933 178.161 74.4133 178.161 77.08C178.161 79.6933 177.628 81.9067 176.561 83.72C175.494 85.5333 174.081 87.0533 172.321 88.28C170.561 89.4533 168.561 90.3867 166.321 91.08C164.081 91.72 161.761 92.2267 159.361 92.6C157.014 92.92 154.668 93.1067 152.321 93.16C150.028 93.2667 147.948 93.32 146.081 93.32H138.081C137.601 93.32 136.934 93.2933 136.081 93.24C135.281 93.24 134.481 93.1867 133.681 93.08C132.881 93.0267 132.188 92.8933 131.601 92.68C131.014 92.4667 130.721 92.2 130.721 91.88L130.801 91.48C132.988 91.5867 135.148 91.6933 137.281 91.8C139.414 91.8533 141.574 91.88 143.761 91.88C145.788 91.88 147.814 91.88 149.841 91.88C151.654 91.8267 153.468 91.72 155.281 91.56C154.374 91.6133 153.468 91.6667 152.561 91.72C151.441 91.72 150.348 91.72 149.281 91.72H146.081C141.068 91.72 136.134 91.56 131.281 91.24C131.388 90.8133 131.441 90.52 131.441 90.36C131.441 90.1467 131.388 89.9333 131.281 89.72C131.174 89.72 131.014 89.7467 130.801 89.8C130.641 89.8 130.428 89.8 130.161 89.8C129.574 89.8 128.908 89.7733 128.161 89.72C127.468 89.6667 126.774 89.56 126.081 89.4C125.441 89.24 124.881 89.0267 124.401 88.76C123.974 88.44 123.761 88.0667 123.761 87.64ZM172.881 85.56C171.974 86.36 171.014 87.0267 170.001 87.56C169.094 88.04 168.161 88.4933 167.201 88.92C168.161 88.6 169.094 88.2267 170.001 87.8C171.014 87.3733 171.974 86.6267 172.881 85.56ZM222.327 84.52C222.221 85.8533 221.687 87.0267 220.727 88.04C219.821 89 218.674 89.8267 217.287 90.52C215.954 91.16 214.514 91.64 212.967 91.96C211.474 92.28 210.114 92.44 208.887 92.44C205.261 92.44 202.007 91.5867 199.127 89.88C196.247 88.12 193.794 85.88 191.767 83.16C189.741 80.3867 188.141 77.32 186.967 73.96C185.847 70.7067 185.207 67.5067 185.047 64.36C185.154 67.6133 185.767 70.8933 186.887 74.2C188.061 77.6133 189.661 80.7067 191.687 83.48C193.714 86.2533 196.194 88.52 199.127 90.28C202.061 91.9867 205.367 92.84 209.047 92.84C211.074 92.84 213.047 92.52 214.967 91.88C216.887 91.24 218.674 90.36 220.327 89.24C219.101 91.1067 217.474 92.44 215.447 93.24C213.421 94.04 211.341 94.44 209.207 94.44C206.807 94.44 204.594 94.0933 202.567 93.4C200.541 92.76 198.567 91.72 196.647 90.28L196.327 89C194.141 87.6667 192.247 86.0133 190.647 84.04C189.101 82.0667 187.821 79.9333 186.807 77.64C185.847 75.3467 185.127 72.9467 184.647 70.44C184.221 67.9333 184.007 65.4267 184.007 62.92C184.007 60.2533 184.247 57.6133 184.727 55C185.261 52.3333 185.981 49.72 186.887 47.16C186.674 47.16 186.567 47.08 186.567 46.92C185.447 49.3733 184.621 51.9067 184.087 54.52C183.554 57.1333 183.287 59.8 183.287 62.52C183.287 67.6933 184.301 72.68 186.327 77.48C188.354 82.2267 191.367 86.2533 195.367 89.56C193.287 87.96 191.447 86.12 189.847 84.04C188.301 81.96 187.021 79.7467 186.007 77.4C184.994 75 184.221 72.52 183.687 69.96C183.207 67.4 182.967 64.8133 182.967 62.2C182.967 58.68 183.447 55.1067 184.407 51.48C185.421 47.8 186.914 44.4667 188.887 41.48C190.914 38.4933 193.421 36.0667 196.407 34.2C199.394 32.28 202.887 31.32 206.887 31.32C208.701 31.32 210.407 31.6133 212.007 32.2C213.661 32.7867 215.207 33.56 216.647 34.52C218.087 35.48 219.421 36.5733 220.647 37.8C221.927 39.0267 223.127 40.28 224.247 41.56L222.567 43C221.821 42.7333 221.101 42.3333 220.407 41.8C219.767 41.2133 219.181 40.6267 218.647 40.04L218.167 40.6C218.861 41.4 219.501 42.3333 220.087 43.4C220.674 44.4133 220.967 45.48 220.967 46.6L220.087 48.04C219.394 47.9867 218.514 47.5867 217.447 46.84C216.434 46.04 215.287 45.2133 214.007 44.36C212.781 43.4533 211.501 42.6267 210.167 41.88C208.887 41.1333 207.634 40.76 206.407 40.76C204.807 40.76 203.367 41.16 202.087 41.96C200.861 42.76 199.741 43.8 198.727 45.08C197.714 46.36 196.834 47.8267 196.087 49.48C195.394 51.1333 194.807 52.8133 194.327 54.52C193.901 56.2267 193.554 57.9067 193.287 59.56C193.074 61.16 192.967 62.5733 192.967 63.8C192.967 65.88 193.287 68.1733 193.927 70.68C194.621 73.1867 195.607 75.5333 196.887 77.72C198.221 79.8533 199.847 81.64 201.767 83.08C203.687 84.52 205.874 85.24 208.327 85.24C209.447 85.24 210.594 85.1333 211.767 84.92C212.994 84.6533 214.087 84.2267 215.047 83.64L215.687 84.36C213.661 85.9067 211.341 86.68 208.727 86.68C206.167 86.68 203.821 86.0667 201.687 84.84C202.701 85.5333 203.821 86.04 205.047 86.36C206.381 86.7333 207.714 86.92 209.047 86.92C211.501 86.92 213.794 86.2267 215.927 84.84L216.647 85.88C217.181 85.2933 217.847 84.7333 218.647 84.2C219.447 83.6133 220.274 83.2667 221.127 83.16L222.327 84.52ZM191.767 68.44C192.034 71.5333 192.941 74.4933 194.487 77.32C196.034 80.0933 198.061 82.3333 200.567 84.04C198.061 82.28 196.087 80.0133 194.647 77.24C193.154 74.4133 192.194 71.48 191.767 68.44ZM232.943 88.12C234.063 85.08 234.837 81.8 235.263 78.28C235.69 74.7067 236.01 71.1333 236.223 67.56C236.223 67.0267 236.197 66.52 236.143 66.04C236.143 65.6133 236.143 65.2133 236.143 64.84C235.983 68.7867 235.663 72.7333 235.183 76.68C234.757 80.7333 233.85 84.4667 232.463 87.88C232.25 87.4533 232.09 87.08 231.983 86.76C231.877 86.44 231.823 86.0667 231.823 85.64C231.823 84.36 232.037 83.0267 232.463 81.64C232.89 80.2533 233.157 78.8133 233.263 77.32L234.383 76.84C234.383 74.2267 234.49 71.64 234.703 69.08C234.917 66.4667 235.023 63.8533 235.023 61.24C235.023 59.9067 234.97 58.6 234.863 57.32C234.81 56.04 234.65 54.7067 234.383 53.32H233.903C234.223 57.1067 234.383 60.7333 234.383 64.2C234.383 65.96 234.33 67.64 234.223 69.24C234.117 70.7333 233.93 72.2533 233.663 73.8C233.823 72.6267 233.93 71.5067 233.983 70.44C234.09 69.2133 234.143 67.9067 234.143 66.52C234.143 62.2 233.957 57.8267 233.583 53.4C233.263 48.92 232.97 44.3333 232.703 39.64V37.4C232.863 36.76 232.943 36.0667 232.943 35.32C232.997 34.5733 233.077 33.8533 233.183 33.16C233.29 32.4667 233.477 31.9067 233.743 31.48C234.063 31 234.57 30.76 235.263 30.76L236.623 31.16L237.103 32.12H237.823C238.037 31.8 238.277 31.64 238.543 31.64C238.863 31.64 239.183 31.7733 239.503 32.04C239.823 32.2533 240.197 32.36 240.623 32.36C241.423 32.36 241.983 32.92 242.303 34.04C242.623 35.1067 242.837 36.4667 242.943 38.12C243.05 39.72 243.103 41.5067 243.103 43.48C243.103 45.4 243.21 47.2133 243.423 48.92C243.583 50.4667 243.717 52.04 243.823 53.64C243.983 55.1867 244.063 56.76 244.063 58.36C244.063 59.96 244.01 61.8267 243.903 63.96C243.797 66.0933 243.637 68.3067 243.423 70.6C243.263 72.84 243.05 75.08 242.783 77.32C242.517 79.56 242.223 81.56 241.903 83.32C241.583 85.08 241.21 86.52 240.783 87.64C240.357 88.7067 239.93 89.24 239.503 89.24C239.397 89.24 239.237 89.1867 239.023 89.08C239.397 87.3733 239.743 85.6667 240.063 83.96C240.437 82.2533 240.757 80.4667 241.023 78.6C240.65 80.3067 240.25 82.0667 239.823 83.88C239.45 85.64 239.023 87.2933 238.543 88.84C238.33 88.6267 238.063 88.52 237.743 88.52C237.637 88.52 237.503 88.6533 237.343 88.92C237.237 89.1867 237.077 89.5067 236.863 89.88C236.65 90.2 236.383 90.4933 236.063 90.76C235.743 91.0267 235.397 91.16 235.023 91.16C234.65 91.16 234.357 91.08 234.143 90.92C233.93 90.76 233.743 90.5733 233.583 90.36C233.477 90.0933 233.343 89.8267 233.183 89.56C233.077 89.2933 232.917 89.0533 232.703 88.84L232.943 88.12ZM242.223 65.08C241.903 66.1467 241.663 67.1333 241.503 68.04C241.397 68.8933 241.317 69.72 241.263 70.52C241.263 71.32 241.263 72.1467 241.263 73C241.263 73.7467 241.237 74.5733 241.183 75.48C241.397 73.6667 241.583 72.0133 241.743 70.52C241.957 68.92 242.117 67.1067 242.223 65.08ZM233.663 74.12C233.663 74.0133 233.663 73.9067 233.663 73.8C233.663 73.9067 233.663 74.0133 233.663 74.12ZM254.818 88.12C255.938 85.08 256.712 81.8 257.138 78.28C257.565 74.7067 257.885 71.1333 258.098 67.56C258.098 67.0267 258.072 66.52 258.018 66.04C258.018 65.6133 258.018 65.2133 258.018 64.84C257.858 68.7867 257.538 72.7333 257.058 76.68C256.632 80.7333 255.725 84.4667 254.338 87.88C254.125 87.4533 253.965 87.08 253.858 86.76C253.752 86.44 253.698 86.0667 253.698 85.64C253.698 84.36 253.912 83.0267 254.338 81.64C254.765 80.2533 255.032 78.8133 255.138 77.32L256.258 76.84C256.258 74.2267 256.365 71.64 256.578 69.08C256.792 66.4667 256.898 63.8533 256.898 61.24C256.898 59.9067 256.845 58.6 256.738 57.32C256.685 56.04 256.525 54.7067 256.258 53.32H255.778C256.098 57.1067 256.258 60.7333 256.258 64.2C256.258 65.96 256.205 67.64 256.098 69.24C255.992 70.7333 255.805 72.2533 255.538 73.8C255.698 72.6267 255.805 71.5067 255.858 70.44C255.965 69.2133 256.018 67.9067 256.018 66.52C256.018 62.2 255.832 57.8267 255.458 53.4C255.138 48.92 254.845 44.3333 254.578 39.64V37.4C254.738 36.76 254.818 36.0667 254.818 35.32C254.872 34.5733 254.952 33.8533 255.058 33.16C255.165 32.4667 255.352 31.9067 255.618 31.48C255.938 31 256.445 30.76 257.138 30.76L258.498 31.16L258.978 32.12H259.698C259.912 31.8 260.152 31.64 260.418 31.64C260.738 31.64 261.058 31.7733 261.378 32.04C261.698 32.2533 262.072 32.36 262.498 32.36C263.298 32.36 263.858 32.92 264.178 34.04C264.498 35.1067 264.712 36.4667 264.818 38.12C264.925 39.72 264.978 41.5067 264.978 43.48C264.978 45.4 265.085 47.2133 265.298 48.92C265.458 50.4667 265.592 52.04 265.698 53.64C265.858 55.1867 265.938 56.76 265.938 58.36C265.938 59.96 265.885 61.8267 265.778 63.96C265.672 66.0933 265.512 68.3067 265.298 70.6C265.138 72.84 264.925 75.08 264.658 77.32C264.392 79.56 264.098 81.56 263.778 83.32C263.458 85.08 263.085 86.52 262.658 87.64C262.232 88.7067 261.805 89.24 261.378 89.24C261.272 89.24 261.112 89.1867 260.898 89.08C261.272 87.3733 261.618 85.6667 261.938 83.96C262.312 82.2533 262.632 80.4667 262.898 78.6C262.525 80.3067 262.125 82.0667 261.698 83.88C261.325 85.64 260.898 87.2933 260.418 88.84C260.205 88.6267 259.938 88.52 259.618 88.52C259.512 88.52 259.378 88.6533 259.218 88.92C259.112 89.1867 258.952 89.5067 258.738 89.88C258.525 90.2 258.258 90.4933 257.938 90.76C257.618 91.0267 257.272 91.16 256.898 91.16C256.525 91.16 256.232 91.08 256.018 90.92C255.805 90.76 255.618 90.5733 255.458 90.36C255.352 90.0933 255.218 89.8267 255.058 89.56C254.952 89.2933 254.792 89.0533 254.578 88.84L254.818 88.12ZM264.098 65.08C263.778 66.1467 263.538 67.1333 263.378 68.04C263.272 68.8933 263.192 69.72 263.138 70.52C263.138 71.32 263.138 72.1467 263.138 73C263.138 73.7467 263.112 74.5733 263.058 75.48C263.272 73.6667 263.458 72.0133 263.618 70.52C263.832 68.92 263.992 67.1067 264.098 65.08ZM255.538 74.12C255.538 74.0133 255.538 73.9067 255.538 73.8C255.538 73.9067 255.538 74.0133 255.538 74.12Z" fill="#86C232"/>
<path d="M275.573 87.88C275.573 87.6133 275.653 87.2933 275.813 86.92C275.973 86.5467 276.053 86.1467 276.053 85.72C276.213 84.44 276.32 83.5333 276.373 83C276.427 82.4133 276.453 81.9067 276.453 81.48C276.453 79.24 276.373 76.84 276.213 74.28C276.107 71.6667 275.973 69.16 275.813 66.76C275.813 66.0133 275.787 65.1333 275.733 64.12C275.733 63.1067 275.68 62.3067 275.573 61.72C275.733 59.8533 275.867 58.0133 275.973 56.2C276.08 54.3867 276.133 52.5467 276.133 50.68V48.68C276.133 47.9867 276.107 47.2933 276.053 46.6C276.213 46.76 276.373 46.84 276.533 46.84C276.747 46.84 276.96 46.76 277.173 46.6C277.44 46.44 277.68 46.36 277.893 46.36C278.267 46.36 278.56 46.76 278.773 47.56C279.04 48.36 279.173 50.12 279.173 52.84H279.893C280.16 49.8533 280.56 47.48 281.093 45.72C281.68 43.96 282.267 43.08 282.853 43.08C283.12 43.08 283.547 43.6667 284.133 44.84C284.72 45.96 285.013 47.7467 285.013 50.2L285.893 48.76C286.48 48.0667 287.12 47.3467 287.813 46.6C288.56 45.8533 289.387 45.1867 290.293 44.6C291.2 44.0133 292.213 43.5333 293.333 43.16C294.453 42.7333 295.733 42.52 297.173 42.52C299.947 42.52 302.347 43.16 304.373 44.44C306.453 45.6667 308.187 47.2933 309.573 49.32C310.96 51.2933 312.08 53.56 312.933 56.12C313.84 58.6267 314.533 61.1867 315.013 63.8C315.493 66.36 315.813 68.84 315.973 71.24C316.133 73.64 316.213 75.6933 316.213 77.4C316.213 78.9467 316.107 79.88 315.893 80.2C315.733 80.4667 315.413 80.6267 314.933 80.68C314.827 76.5733 314.56 72.3867 314.133 68.12C313.707 63.8533 312.693 59.72 311.093 55.72C312.533 59.9333 313.44 64.0933 313.813 68.2C314.24 72.2533 314.453 76.3333 314.453 80.44C314.133 80.28 313.84 80.2 313.573 80.2C313.36 80.2 313.173 80.28 313.013 80.44C313.013 80.8667 313.04 81.32 313.093 81.8C313.147 82.2267 313.173 82.6533 313.173 83.08C313.227 83.5067 313.253 83.9067 313.253 84.28C312.933 85.5067 312.613 86.3867 312.293 86.92C311.973 87.4533 311.68 87.72 311.413 87.72C311.093 87.72 310.827 87.5867 310.613 87.32C310.4 87 310.187 86.6267 309.973 86.2C309.813 85.7733 309.627 85.32 309.413 84.84C309.253 84.3067 309.013 83.8 308.693 83.32C308.8 82.4133 308.88 81.6933 308.933 81.16C308.987 80.5733 309.013 80.0933 309.013 79.72C309.013 78.28 308.987 76.5467 308.933 74.52C308.88 72.4933 308.72 70.3867 308.453 68.2C308.24 65.96 307.867 63.7467 307.333 61.56C306.853 59.32 306.16 57.3467 305.253 55.64C304.4 53.88 303.307 52.4667 301.973 51.4C300.64 50.28 299.04 49.72 297.173 49.72C295.893 49.72 294.747 50.1467 293.733 51C292.773 51.8533 291.92 52.9467 291.173 54.28C290.48 55.6133 289.867 57.08 289.333 58.68C288.8 60.2267 288.373 61.72 288.053 63.16C288.533 61.6667 289.013 60.1467 289.493 58.6C290.027 57.0533 290.64 55.64 291.333 54.36C292.08 53.08 292.933 52.04 293.893 51.24C294.853 50.3867 295.973 49.96 297.253 49.96C298.907 49.96 300.32 50.4133 301.493 51.32C302.72 52.2267 303.733 53.4 304.533 54.84C305.387 56.28 306.053 57.9333 306.533 59.8C307.067 61.6133 307.467 63.48 307.733 65.4C308 67.2667 308.16 69.1067 308.213 70.92C308.32 72.68 308.373 74.2 308.373 75.48C308.373 76.4933 308.347 77.5067 308.293 78.52C308.293 79.5333 308.267 80.5733 308.213 81.64C307.733 79.6133 307.36 77.5067 307.093 75.32C306.88 73.08 306.64 70.8933 306.373 68.76C306.107 66.5733 305.76 64.4933 305.333 62.52C304.96 60.4933 304.4 58.6267 303.653 56.92L304.213 56.12C303.68 54.8933 303.067 53.96 302.373 53.32C301.733 52.6267 301.093 52.12 300.453 51.8C299.813 51.48 299.227 51.2933 298.693 51.24C298.16 51.1867 297.813 51.16 297.653 51.16C296.32 51.16 295.12 51.64 294.053 52.6C293.04 53.56 292.133 54.8667 291.333 56.52C290.587 58.12 289.92 59.9867 289.333 62.12C288.747 64.2533 288.24 66.4933 287.813 68.84C287.387 71.1867 287.013 73.56 286.693 75.96C286.373 78.3067 286.107 80.52 285.893 82.6H286.613C286.88 80.7867 287.147 78.7867 287.413 76.6C287.733 74.4133 288.053 72.2 288.373 69.96C288.747 67.6667 289.173 65.4533 289.653 63.32C290.133 61.1867 290.693 59.2667 291.333 57.56C292.027 55.8533 292.827 54.4667 293.733 53.4C294.587 52.3867 295.627 51.8 296.853 51.64C295.68 51.9067 294.693 52.6533 293.893 53.88C293.04 55.16 292.293 56.7333 291.653 58.6C291.013 60.4667 290.427 62.52 289.893 64.76C289.413 66.9467 288.96 69.0533 288.533 71.08L286.933 82.76C286.72 83.5067 286.56 84.1733 286.453 84.76L286.133 86.44C286.027 86.9733 285.92 87.56 285.813 88.2C285.707 88.7867 285.573 89.48 285.413 90.28L285.173 91.24H284.693L276.613 88.52C276.347 88.4667 276.133 88.3867 275.973 88.28C275.867 88.1733 275.733 88.04 275.573 87.88ZM289.493 46.84C288.427 47.7467 287.573 48.7333 286.933 49.8C286.347 50.8133 285.787 51.8533 285.253 52.92V53C286 51.4533 287.04 49.88 288.373 48.28C289.653 46.7867 291.36 45.6667 293.493 44.92C292.8 45.1333 292.133 45.3467 291.493 45.56C290.747 45.8267 290.08 46.2533 289.493 46.84ZM299.093 44.2C298.827 44.1467 298.453 44.12 297.973 44.12C299.68 44.5467 301.28 45.0267 302.773 45.56C304.267 46.04 305.68 47.0267 307.013 48.52C306.107 47.2933 304.907 46.3333 303.413 45.64C301.973 44.9467 300.533 44.4667 299.093 44.2ZM301.253 53.32C300.827 53 300.32 52.76 299.733 52.6C299.2 52.3867 298.533 52.12 297.733 51.8L297.653 51.64C298.56 51.6933 299.36 51.9067 300.053 52.28C300.747 52.6 301.413 53.1867 302.053 54.04L301.253 53.32ZM307.173 48.68C307.92 49.5867 308.613 50.6267 309.253 51.8C309.893 52.9733 310.453 54.0133 310.933 54.92C310.4 53.6933 309.893 52.5733 309.413 51.56C308.933 50.5467 308.187 49.5867 307.173 48.68ZM366.467 34.6C366.573 36.1467 366.653 37.6667 366.707 39.16C366.76 40.6 366.787 42.0933 366.787 43.64C366.787 46.84 366.68 50.0667 366.467 53.32C366.307 56.52 366.093 59.7733 365.827 63.08C365.56 66.3867 365.293 69.7733 365.027 73.24C364.76 76.7067 364.52 80.3067 364.307 84.04C364.307 84.6267 364.28 85.24 364.227 85.88C364.227 86.4667 364.173 87.1333 364.067 87.88V88.84C364.067 89 364.013 89.2133 363.907 89.48C363.8 89.7467 363.693 89.9333 363.587 90.04C362.893 90.84 362.253 91.4533 361.667 91.88C361.133 92.2533 360.627 92.5467 360.147 92.76C359.667 92.92 359.213 93 358.787 93C358.36 93.0533 357.933 93.1067 357.507 93.16H357.987C358.147 93.16 358.44 93.1333 358.867 93.08C359.347 93.0267 359.853 92.9467 360.387 92.84C360.973 92.68 361.507 92.4933 361.987 92.28C362.52 92.0133 362.893 91.6667 363.107 91.24L363.827 89.8C364.147 89.2133 364.333 88.6 364.387 87.96C364.493 87.2667 364.547 86.6 364.547 85.96C364.6 85.2667 364.627 84.6 364.627 83.96C364.627 83.32 364.68 82.7067 364.787 82.12C364.947 78.76 365.16 75.4 365.427 72.04C365.747 68.68 366.04 65.2933 366.307 61.88C366.573 58.4667 366.813 55.0267 367.027 51.56C367.24 48.04 367.347 44.4667 367.347 40.84C367.347 39.72 367.32 38.6533 367.267 37.64C367.267 36.5733 367.24 35.56 367.187 34.6C367.347 34.8133 367.507 35.16 367.667 35.64C367.88 36.0667 368.04 36.76 368.147 37.72C368.413 38.3067 368.573 38.9467 368.627 39.64C368.68 40.3333 368.76 41.0533 368.867 41.8C368.867 45.4267 368.733 48.9467 368.467 52.36C368.2 55.72 367.933 59.08 367.667 62.44L366.947 62.68L366.227 76.36C366.227 80.2 366.04 83.3733 365.667 85.88C365.347 88.3333 365.053 89.96 364.787 90.76V91C363.987 91.8 363.293 92.4133 362.707 92.84C362.173 93.2133 361.667 93.5067 361.187 93.72C360.707 93.9333 360.253 94.04 359.827 94.04C359.453 94.0933 359.053 94.12 358.627 94.12H353.507C352.067 93.96 350.52 93.88 348.867 93.88C347.213 93.9333 345.48 93.7733 343.667 93.4C341.853 93.0267 339.987 92.2533 338.067 91.08C336.2 89.9067 334.307 88.04 332.387 85.48C332.387 85.5867 332.36 85.6667 332.307 85.72C332.253 85.7733 332.2 85.8533 332.147 85.96C333.907 88.36 336.013 90.3333 338.467 91.88C340.973 93.4267 343.667 94.3333 346.547 94.6H353.267C353.907 94.7067 354.547 94.76 355.187 94.76C355.88 94.8133 356.627 94.84 357.427 94.84C358.227 94.84 359.267 94.7333 360.547 94.52C361.88 94.3067 363.133 93.6133 364.307 92.44C364.52 92.1733 364.653 91.9867 364.707 91.88C364.813 91.72 364.92 91.5067 365.027 91.24L365.267 90.76C365.533 90.28 365.72 89.8 365.827 89.32C365.987 88.7867 366.12 88.28 366.227 87.8C366.227 88.3867 366.173 88.8933 366.067 89.32C366.013 89.7467 365.827 90.3867 365.507 91.24L365.267 91.48L364.307 92.92C363.827 93.4 363.293 93.7733 362.707 94.04C362.12 94.3067 361.56 94.4933 361.027 94.6C360.493 94.76 359.987 94.8667 359.507 94.92C359.08 94.9733 358.76 95.0267 358.547 95.08H355.907C355.213 95.08 354.627 95.0533 354.147 95C353.72 95 353.373 94.9733 353.107 94.92C352.893 94.92 352.707 94.8933 352.547 94.84H350.147C349.667 94.84 349.187 94.84 348.707 94.84C348.227 94.8933 347.72 94.92 347.187 94.92C344.68 94.92 342.227 94.3067 339.827 93.08C337.48 91.9067 335.293 90.2267 333.267 88.04C331.293 85.8533 329.533 83.2667 327.987 80.28C326.44 77.2933 325.267 73.9867 324.467 70.36C324.467 69.7733 324.413 69.2133 324.307 68.68C324.253 68.1467 324.227 67.5867 324.227 67C324.227 65.0267 324.52 63.0267 325.107 61C325.747 58.92 326.867 57.0533 328.467 55.4C330.067 53.7467 332.227 52.4133 334.947 51.4C337.667 50.3333 341.107 49.8 345.267 49.8C347.187 49.8 349.053 49.8533 350.867 49.96C352.68 50.0133 354.52 50.0933 356.387 50.2C356.173 50.36 356.067 50.5467 356.067 50.76C356.067 51.0267 356.12 51.2667 356.227 51.48C356.333 51.64 356.387 51.8267 356.387 52.04C356.387 52.3067 356.173 52.5467 355.747 52.76C355.373 52.92 354.547 53 353.267 53C352.84 53 352.333 53 351.747 53C351.213 52.9467 350.6 52.8933 349.907 52.84V53.56C352.467 53.9333 354.52 54.44 356.067 55.08C357.667 55.6667 358.653 56.2 359.027 56.68L359.187 56.84L359.507 53.32C359.667 51.88 359.747 50.2533 359.747 48.44C359.747 46.5733 359.693 44.7333 359.587 42.92C359.48 41.1067 359.427 39.6933 359.427 38.68C359.427 37.4 359.507 36.5467 359.667 36.12C359.827 35.6933 360.04 35.48 360.307 35.48C360.52 35.48 360.68 35.9333 360.787 36.84C360.947 37.7467 361.053 38.7867 361.107 39.96C361.213 41.08 361.267 42.2 361.267 43.32V45.64C361.267 47.1867 361.24 48.76 361.187 50.36C361.133 51.9067 361.053 53.4533 360.947 55C361.107 52.9733 361.24 51 361.347 49.08C361.453 47.1067 361.507 45.1067 361.507 43.08C361.507 41.8533 361.48 40.6533 361.427 39.48C361.373 38.2533 361.293 37.0267 361.187 35.8C361.507 36.12 361.747 36.28 361.907 36.28C362.12 36.28 362.28 36.12 362.387 35.8C362.333 35.3733 362.28 34.92 362.227 34.44C362.173 34.0133 362.147 33.5867 362.147 33.16V31.96C362.413 31.32 362.76 30.84 363.187 30.52C363.613 30.1467 363.987 29.96 364.307 29.96C365.213 29.96 366.013 30.9467 366.707 32.92L366.467 34.6ZM353.507 58.6C351.747 58.7067 349.747 58.8133 347.507 58.92C345.32 59.0267 343.24 59.32 341.267 59.8C339.293 60.2267 337.587 60.8933 336.147 61.8C334.76 62.7067 333.987 63.96 333.827 65.56C333.827 67.32 334.2 69.2933 334.947 71.48C335.693 73.6667 336.68 75.7467 337.907 77.72C339.133 79.64 340.52 81.2933 342.067 82.68C343.667 84.0667 345.32 84.84 347.027 85H351.587C351.853 85 352.04 85.0267 352.147 85.08C352.307 85.08 352.52 85.1333 352.787 85.24H354.707C355.507 85.4 356.307 85.48 357.107 85.48C357.107 81 357.293 76.4133 357.667 71.72C358.093 66.9733 358.547 62.3333 359.027 57.8C358.333 58.3333 356.493 58.6 353.507 58.6ZM359.267 75.16C359.267 75.7467 359.213 76.36 359.107 77C359.053 77.5867 359.027 78.2533 359.027 79C359.613 76.0133 359.96 72.8667 360.067 69.56C360.173 66.2533 360.307 63.08 360.467 60.04C360.2 62.6 359.987 65.1333 359.827 67.64C359.72 70.0933 359.533 72.6 359.267 75.16ZM366.227 83.8C366.227 83.2133 366.253 82.6267 366.307 82.04C366.36 81.4 366.44 80.7333 366.547 80.04C366.493 81.64 366.467 83.16 366.467 84.6C366.467 85.9867 366.387 86.9733 366.227 87.56C366.227 87.2933 366.227 87.0533 366.227 86.84C366.28 86.5733 366.307 86.3067 366.307 86.04C366.307 85.6133 366.28 85.2133 366.227 84.84C366.227 84.4667 366.227 84.12 366.227 83.8ZM367.427 70.84C367.32 71.1067 367.24 71.4267 367.187 71.8C367.133 72.12 367.053 72.4667 366.947 72.84L367.267 67.96L367.427 70.84ZM366.707 77.08C366.707 77.56 366.68 78.04 366.627 78.52C366.627 79 366.6 79.4533 366.547 79.88C366.547 78.8133 366.573 77.7467 366.627 76.68C366.68 75.56 366.76 74.5467 366.867 73.64L366.707 77.08ZM358.787 82.04C358.84 81.8267 358.867 81.6133 358.867 81.4C358.867 81.1867 358.92 80.9467 359.027 80.68V79.8C358.973 79.9067 358.947 80.0133 358.947 80.12C358.947 80.1733 358.92 80.2267 358.867 80.28L358.787 80.44V82.04ZM358.547 85.88C358.6 85.4 358.653 84.92 358.707 84.44C358.76 83.9067 358.787 83.3733 358.787 82.84V82.6L358.467 85.72L358.547 85.88ZM406.003 94.44C403.976 95.1333 402.429 95.5067 401.363 95.56C400.296 95.6667 399.363 95.7467 398.563 95.8C395.576 95.8 392.883 95.24 390.483 94.12C388.083 93 386.029 91.48 384.323 89.56C382.616 87.64 381.283 85.4 380.323 82.84C379.416 80.2267 378.963 77.4533 378.963 74.52C378.963 72.8133 379.123 71.0533 379.443 69.24C379.763 67.3733 380.243 65.56 380.883 63.8C381.523 61.9867 382.349 60.3067 383.363 58.76C384.323 57.2133 385.469 55.8267 386.803 54.6C385.416 55.72 384.243 57.0533 383.283 58.6C382.269 60.1467 381.416 61.8267 380.723 63.64C380.029 65.4 379.523 67.24 379.203 69.16C378.883 71.0267 378.723 72.84 378.723 74.6C378.723 76.84 379.069 79.24 379.763 81.8C380.509 84.3067 381.683 86.6533 383.283 88.84C384.883 90.9733 386.936 92.76 389.443 94.2C392.003 95.64 395.096 96.36 398.723 96.36C400.429 96.36 402.216 96.12 404.083 95.64C402.056 96.9733 399.789 97.64 397.283 97.64C395.256 97.64 393.336 97.32 391.523 96.68C389.763 96.0933 388.109 95.24 386.563 94.12C385.069 93.0533 383.709 91.7733 382.483 90.28C381.256 88.7867 380.216 87.1867 379.363 85.48L380.083 84.84C379.176 83.0267 378.509 81.2133 378.083 79.4C377.709 77.5867 377.523 75.7467 377.523 73.88C377.523 71.16 377.896 68.5467 378.643 66.04C379.443 63.5333 380.483 61.16 381.763 58.92L383.683 56.28C384.003 55.6933 384.456 55.1067 385.043 54.52C385.683 53.9333 386.376 53.3733 387.123 52.84C387.869 52.2533 388.643 51.7467 389.443 51.32C390.296 50.84 391.096 50.4133 391.843 50.04C393.763 49.08 395.683 48.2267 397.603 47.48C399.523 46.68 401.763 46.0933 404.323 45.72L404.003 45.48C399.096 45.96 394.936 47.16 391.523 49.08C388.109 50.9467 385.336 53.24 383.203 55.96C381.069 58.68 379.523 61.6667 378.563 64.92C377.603 68.12 377.123 71.2667 377.123 74.36C377.123 76.0133 377.256 77.6933 377.523 79.4C377.843 81.0533 378.296 82.7067 378.883 84.36C377.549 81.16 376.883 77.7733 376.883 74.2C376.883 70.68 377.469 67.1867 378.643 63.72C379.816 60.2533 381.656 57.0533 384.163 54.12C387.363 51.1867 390.856 48.9467 394.643 47.4C398.429 45.8 402.083 45 405.603 45C406.723 45 407.869 45.1867 409.043 45.56C410.216 45.9333 411.283 46.52 412.243 47.32C413.203 48.0667 413.976 49.0533 414.563 50.28C415.203 51.5067 415.523 53 415.523 54.76C415.523 56.2 415.176 57.96 414.483 60.04C413.789 62.12 412.749 64.1467 411.363 66.12C410.029 68.04 408.349 69.6933 406.323 71.08C404.296 72.4133 401.949 73.08 399.283 73.08H396.643C394.669 72.6533 392.856 72.1733 391.203 71.64C389.603 71.0533 388.083 70.6 386.643 70.28C386.429 71.1333 386.296 71.96 386.243 72.76C386.243 73.5067 386.243 74.2533 386.243 75C386.243 76.5467 386.403 78.0667 386.723 79.56C387.096 81 387.656 82.3333 388.403 83.56C389.149 84.7867 390.083 85.8267 391.203 86.68C392.376 87.48 393.789 87.9867 395.443 88.2C396.456 88.4133 397.336 88.5467 398.083 88.6C398.829 88.6 399.443 88.6267 399.923 88.68C400.456 88.68 400.829 88.76 401.043 88.92C401.309 89.0267 401.443 89.2667 401.443 89.64C400.909 89.8 400.349 89.9067 399.763 89.96C399.229 90.0133 398.669 90.04 398.083 90.04C396.216 90.04 394.536 89.7467 393.043 89.16C391.549 88.52 390.269 87.8 389.203 87C390.429 88.2267 391.896 89.1067 393.603 89.64C395.309 90.12 396.989 90.36 398.643 90.36C399.549 90.36 400.483 90.28 401.443 90.12C401.336 90.44 401.283 90.6267 401.283 90.68C401.283 91 401.416 91.2133 401.683 91.32C401.896 91.2667 402.269 91.1333 402.803 90.92C403.336 90.6533 403.869 90.4133 404.403 90.2C404.989 89.9333 405.549 89.72 406.083 89.56C406.616 89.3467 406.989 89.24 407.203 89.24C407.469 89.24 407.709 89.2933 407.923 89.4C408.136 89.4533 408.243 89.7467 408.243 90.28C408.243 90.8133 408.056 91.4533 407.683 92.2C407.309 92.9467 406.749 93.6933 406.003 94.44ZM394.963 62.76L396.723 63.08C397.309 63.1867 397.843 63.24 398.323 63.24C398.856 63.24 399.469 63.08 400.163 62.76C400.909 62.3867 401.629 61.88 402.323 61.24C403.069 60.6 403.709 59.8 404.243 58.84C404.829 57.88 405.256 56.7867 405.523 55.56L405.683 55.08C404.936 55.08 403.816 55.2667 402.323 55.64C400.829 56.0133 399.283 56.52 397.683 57.16C396.083 57.7467 394.589 58.4667 393.203 59.32C391.816 60.12 390.856 61 390.323 61.96C391.123 62.12 391.896 62.28 392.643 62.44C393.443 62.5467 394.216 62.6533 394.963 62.76ZM391.283 68.68C391.389 68.5733 391.443 68.4133 391.443 68.2C391.496 67.9867 391.523 67.8267 391.523 67.72L387.763 66.36L387.363 67.48L391.283 68.68ZM389.043 86.84C388.669 86.4133 388.296 85.9867 387.923 85.56C387.603 85.1867 387.336 84.8133 387.123 84.44C387.603 85.3467 388.243 86.1467 389.043 86.84ZM454.502 89.16C454.556 88.8933 454.582 88.68 454.582 88.52V87.8C454.582 86.6267 454.209 85.24 453.462 83.64C452.769 82.04 451.889 80.4667 450.822 78.92C449.756 77.3733 448.636 75.9333 447.462 74.6C446.289 73.2133 445.276 72.12 444.422 71.32L444.342 71.48C445.462 72.8133 446.582 74.1733 447.702 75.56C448.876 76.8933 449.916 78.2533 450.822 79.64C451.782 80.9733 452.556 82.3333 453.142 83.72C453.782 85.1067 454.102 86.4667 454.102 87.8V88.52C454.102 88.68 454.076 88.8933 454.022 89.16C453.542 88.84 453.196 88.4667 452.982 88.04C452.822 87.56 452.689 87.1333 452.582 86.76C452.529 86.3333 452.476 85.9867 452.422 85.72C452.422 85.4533 452.316 85.32 452.102 85.32C451.782 84.5733 451.489 83.9867 451.222 83.56C450.956 83.08 450.609 82.4667 450.182 81.72L450.662 80.76C449.329 79.48 448.102 78.1467 446.982 76.76C445.916 75.3733 444.769 73.9067 443.542 72.36L443.222 72.68C444.449 74.1733 445.489 75.48 446.342 76.6C447.196 77.6667 447.756 78.4133 448.022 78.84C447.862 78.5733 447.409 78.0667 446.662 77.32C445.862 76.4667 444.636 75.0267 442.982 73C440.956 75.24 439.116 77.48 437.462 79.72C435.862 81.9067 434.342 84.0933 432.902 86.28C432.529 86.5467 432.236 87.0267 432.022 87.72C431.809 88.36 431.596 89.0267 431.382 89.72C431.169 90.4133 430.902 91.0267 430.582 91.56C430.316 92.04 429.916 92.28 429.382 92.28C429.169 92.28 428.902 92.12 428.582 91.8C429.489 90.4133 430.156 89.1067 430.582 87.88C431.062 86.6 431.356 85.8267 431.462 85.56C430.716 86.3067 430.182 87.24 429.862 88.36C429.542 89.4267 429.036 90.4933 428.342 91.56C428.236 91.4533 428.076 91.32 427.862 91.16C427.649 90.9467 427.409 90.84 427.142 90.84L426.422 92.28C426.209 92.3867 425.942 92.44 425.622 92.44C425.249 92.44 424.902 92.3067 424.582 92.04C424.316 91.72 424.076 91.3733 423.862 91C423.649 90.6267 423.462 90.28 423.302 89.96C423.196 89.64 423.116 89.4533 423.062 89.4L423.302 89.16C423.569 88.8933 423.889 88.3867 424.262 87.64C424.636 86.8933 425.089 85.9867 425.622 84.92C426.209 83.8533 426.876 82.68 427.622 81.4C428.369 80.12 429.249 78.7867 430.262 77.4C431.329 75.96 432.396 74.4667 433.462 72.92C434.582 71.32 435.676 69.8533 436.742 68.52C434.662 70.8667 432.689 73.4 430.822 76.12C428.956 78.7867 427.249 81.4533 425.702 84.12C425.222 85.1867 424.742 86.12 424.262 86.92C423.782 87.72 423.302 88.3067 422.822 88.68C422.716 88.52 422.662 88.2 422.662 87.72C422.662 87.3467 422.769 86.8133 422.982 86.12C423.249 85.4267 423.569 84.68 423.942 83.88C424.369 83.08 424.822 82.28 425.302 81.48C425.836 80.6267 426.369 79.8267 426.902 79.08L427.622 79.32C428.849 76.8667 430.289 74.6533 431.942 72.68C433.596 70.7067 435.196 68.7067 436.742 66.68L436.182 66.28C434.956 67.8267 433.729 69.4 432.502 71C431.329 72.6 430.156 74.2533 428.982 75.96C430.102 74.2533 431.222 72.6 432.342 71C433.516 69.3467 434.716 67.72 435.942 66.12C434.502 65.0533 433.089 64.0667 431.702 63.16C430.369 62.2533 429.009 61.2133 427.622 60.04C426.236 58.8667 424.796 57.4533 423.302 55.8C421.862 54.0933 420.342 51.9333 418.742 49.32L420.662 48.04C420.929 48.04 421.196 48.2 421.462 48.52C421.782 48.7867 422.156 49.2933 422.582 50.04L423.302 49.32C422.876 48.3067 422.662 47.4267 422.662 46.68C422.662 45.08 423.249 44.28 424.422 44.28C424.956 44.28 425.649 44.68 426.502 45.48C427.409 46.28 428.422 47.2667 429.542 48.44C430.662 49.6133 431.889 50.84 433.222 52.12C434.556 53.3467 435.969 54.4133 437.462 55.32L441.942 59.16L446.822 51C447.249 50.7867 447.729 50.4667 448.262 50.04C448.849 49.56 449.409 49.08 449.942 48.6C450.529 48.0667 451.116 47.5333 451.702 47C452.289 46.4133 452.822 45.9067 453.302 45.48C453.409 45.9067 453.676 46.2267 454.102 46.44C454.529 46.6533 454.742 46.9733 454.742 47.4C454.742 47.88 454.262 48.52 453.302 49.32C453.622 49.64 453.862 49.8 454.022 49.8C455.036 49.2667 455.996 49 456.902 49C457.596 49 458.156 49.16 458.582 49.48C459.009 49.7467 459.222 50.1733 459.222 50.76C459.222 51.4533 458.822 52.3333 458.022 53.4C457.222 54.4667 456.262 55.64 455.142 56.92C454.022 58.2 452.876 59.56 451.702 61C450.529 62.3867 449.596 63.7733 448.902 65.16C449.862 66.5467 451.062 68.0667 452.502 69.72C453.996 71.3733 455.409 73.1333 456.742 75C458.129 76.8133 459.302 78.7067 460.262 80.68C461.276 82.6533 461.782 84.68 461.782 86.76C461.782 87.6133 461.622 88.12 461.302 88.28C461.036 88.3867 460.769 88.44 460.502 88.44C460.396 87.48 460.262 86.52 460.102 85.56C459.942 84.6 459.676 83.64 459.302 82.68L458.582 81.24C458.476 81.1867 458.316 81.0533 458.102 80.84L459.062 82.68C459.436 83.64 459.676 84.5733 459.782 85.48C459.942 86.3333 460.022 87.24 460.022 88.2C459.756 88.2 459.516 88.2267 459.302 88.28C459.089 88.28 458.929 88.3333 458.822 88.44V89.88C458.396 90.8933 457.836 91.4 457.142 91.4C456.662 91.4 456.156 91.2133 455.622 90.84C455.142 90.4667 454.769 90.1467 454.502 89.88V89.16ZM433.142 82.92C433.889 82.1733 434.582 81.2667 435.222 80.2C435.809 79.1867 436.476 78.2 437.222 77.24C436.476 78.0933 435.729 78.9467 434.982 79.8C434.182 80.6533 433.569 81.6933 433.142 82.92ZM448.982 67.32C449.942 69.0267 451.089 70.7333 452.422 72.44C453.756 74.0933 455.089 75.8267 456.422 77.64C455.196 75.8267 453.916 74.04 452.582 72.28C451.249 70.52 450.049 68.8667 448.982 67.32ZM433.062 63.16L432.822 63.4C432.876 63.4533 433.062 63.6133 433.382 63.88C433.702 64.0933 434.049 64.3333 434.422 64.6C434.849 64.8667 435.222 65.1333 435.542 65.4C435.862 65.6133 436.076 65.7467 436.182 65.8L436.422 65.48L433.062 63.16ZM437.302 66.04L436.662 65.64L436.422 65.96L436.982 66.36L437.302 66.04ZM448.102 78.92L448.022 78.84L448.102 78.92Z" fill="white"/>
</g>
<path d="M468.534 43V40.04L477.894 28.08L468.774 17.44V14.44H487.774V17.64H477.574C477.2 17.64 476.694 17.64 476.054 17.64C475.414 17.64 474.8 17.64 474.214 17.64C473.627 17.6133 473.187 17.6 472.894 17.6L481.894 28.04L472.494 39.88C473.507 39.88 474.507 39.88 475.494 39.88C476.507 39.8533 477.547 39.84 478.614 39.84H488.934V43H468.534Z" fill="#86C232"/>
<defs>
<filter id="filter0_b" x="59.3891" y="25.96" width="406.393" height="76.8" filterUnits="userSpaceOnUse" color-interpolation-filters="sRGB">
<feFlood flood-opacity="0" result="BackgroundImageFix"/>
<feGaussianBlur in="BackgroundImage" stdDeviation="2"/>
<feComposite in2="SourceAlpha" operator="in" result="effect1_backgroundBlur"/>
<feBlend mode="normal" in="SourceGraphic" in2="effect1_backgroundBlur" result="shape"/>
</filter>
</defs>
</svg>
